<svg width="25" height="25" viewBox="0 0 25 25" fill="none" xmlns="http://www.w3.org/2000/svg">
<path fill-rule="evenodd" clip-rule="evenodd" d="M4 1H21C22.65 1 24 2.35 24 4V21C24 22.65 22.65 24 21 24H4C2.35 24 1 22.65 1 21V4C1 2.35 2.35 1 4 1ZM22 4C22 3.458 21.542 3 21 3H4C3.458 3 3 3.458 3 4V21C3 21.542 3.458 22 4 22H21C21.542 22 22 21.542 22 21V4Z" fill="#6A6A6A"/>
<path d="M21 0.5H4V1.5H21V0.5ZM24.5 4C24.5 2.07386 22.9261 0.5 21 0.5V1.5C22.3739 1.5 23.5 2.62614 23.5 4H24.5ZM24.5 21V4H23.5V21H24.5ZM21 24.5C22.9261 24.5 24.5 22.9261 24.5 21H23.5C23.5 22.3739 22.3739 23.5 21 23.5V24.5ZM4 24.5H21V23.5H4V24.5ZM0.5 21C0.5 22.9261 2.07386 24.5 4 24.5V23.5C2.62614 23.5 1.5 22.3739 1.5 21H0.5ZM0.5 4V21H1.5V4H0.5ZM4 0.5C2.07386 0.5 0.5 2.07386 0.5 4H1.5C1.5 2.62614 2.62614 1.5 4 1.5V0.5ZM21 3.5C21.2659 3.5 21.5 3.73414 21.5 4H22.5C22.5 3.18186 21.8181 2.5 21 2.5V3.5ZM4 3.5H21V2.5H4V3.5ZM3.5 4C3.5 3.73414 3.73414 3.5 4 3.5V2.5C3.18186 2.5 2.5 3.18186 2.5 4H3.5ZM3.5 21V4H2.5V21H3.5ZM4 21.5C3.73414 21.5 3.5 21.2659 3.5 21H2.5C2.5 21.8181 3.18186 22.5 4 22.5V21.5ZM21 21.5H4V22.5H21V21.5ZM21.5 21C21.5 21.2659 21.2659 21.5 21 21.5V22.5C21.8181 22.5 22.5 21.8181 22.5 21H21.5ZM21.5 4V21H22.5V4H21.5Z" fill="white"/>
</svg>
